<svg width="40" height="41" viewBox="0 0 40 41" fill="none" xmlns="http://www.w3.org/2000/svg">
<g clip-path="url(#clip0_305_1917)">
<path d="M30.2101 24.2815C27.4299 24.2815 25.1681 26.5433 25.1681 29.3235C25.1681 32.1038 27.4299 34.3656 30.2101 34.3656C32.9908 34.3656 35.2522 32.1038 35.2522 29.3235C35.2522 26.5433 32.9904 24.2815 30.2101 24.2815ZM30.2101 31.8445C28.8198 31.8445 27.6891 30.7138 27.6891 29.3235C27.6891 27.9332 28.8198 26.8025 30.2101 26.8025C31.6004 26.8025 32.7311 27.9332 32.7311 29.3235C32.7311 30.7139 31.6004 31.8445 30.2101 31.8445Z" fill="#62D0B6"/>
<path d="M12.9833 24.2815C10.203 24.2815 7.94122 26.5433 7.94122 29.3235C7.94122 32.1038 10.203 34.3656 12.9833 34.3656C15.7635 34.3656 18.0253 32.1038 18.0253 29.3235C18.0253 26.5433 15.7635 24.2815 12.9833 24.2815ZM12.9833 31.8445C11.5929 31.8445 10.4622 30.7138 10.4622 29.3235C10.4622 27.9332 11.5929 26.8025 12.9833 26.8025C14.3732 26.8025 15.5043 27.9332 15.5043 29.3235C15.5043 30.7139 14.3736 31.8445 12.9833 31.8445Z" fill="#62D0B6"/>
<path d="M33.6051 9.84941C33.3908 9.42379 32.9551 9.15527 32.4786 9.15527H25.8399V11.6763H31.7012L35.1336 18.5032L37.3865 17.3704L33.6051 9.84941Z" fill="#62D0B6"/>
<path d="M26.4287 28.1051H16.8909V30.6261H26.4287V28.1051Z" fill="#62D0B6"/>
<path d="M9.20053 28.105H4.83084C4.13459 28.105 3.57037 28.6693 3.57037 29.3654C3.57037 30.0617 4.13467 30.6259 4.83084 30.6259H9.20061C9.89686 30.6259 10.4611 30.0616 10.4611 29.3654C10.4611 28.6692 9.89678 28.105 9.20053 28.105Z" fill="#62D0B6"/>
<path d="M39.7342 20.399L37.2548 17.2057C37.0166 16.8981 36.649 16.7183 36.2594 16.7183H27.0997V7.89475C27.0997 7.1985 26.5355 6.63428 25.8393 6.63428H4.83084C4.13459 6.63428 3.57037 7.19857 3.57037 7.89475C3.57037 8.59092 4.13467 9.15521 4.83084 9.15521H24.5787V17.9787C24.5787 18.675 25.143 19.2392 25.8392 19.2392H35.6422L37.4779 21.6039V28.1047H33.9905C33.2942 28.1047 32.73 28.669 32.73 29.3652C32.73 30.0615 33.2943 30.6257 33.9905 30.6257H38.7383C39.4346 30.6257 39.9988 30.0614 39.9989 29.3652V21.1721C39.9989 20.8922 39.9056 20.62 39.7342 20.399Z" fill="#62D0B6"/>
<path d="M9.11773 21.7185H3.31937C2.62312 21.7185 2.0589 22.2828 2.0589 22.979C2.0589 23.6752 2.6232 24.2394 3.31937 24.2394H9.11765C9.8139 24.2394 10.3781 23.6751 10.3781 22.979C10.3782 22.2828 9.8139 21.7185 9.11773 21.7185Z" fill="#62D0B6"/>
<path d="M12.0169 16.7605H1.26053C0.564358 16.7605 6.10352e-05 17.3248 6.10352e-05 18.021C6.10352e-05 18.7173 0.564358 19.2815 1.26053 19.2815H12.0169C12.7131 19.2815 13.2773 18.7172 13.2773 18.021C13.2773 17.3249 12.7131 16.7605 12.0169 16.7605Z" fill="#62D0B6"/>
<path d="M14.0757 11.8025H3.31937C2.62312 11.8025 2.0589 12.3668 2.0589 13.063C2.0589 13.7592 2.6232 14.3234 3.31937 14.3234H14.0757C14.7719 14.3234 15.3362 13.7591 15.3362 13.063C15.3362 12.3668 14.7719 11.8025 14.0757 11.8025Z" fill="#62D0B6"/>
</g>
<defs>
<clipPath id="clip0_305_1917">
<rect width="40" height="40" fill="white" transform="translate(6.10352e-05 0.5)"/>
</clipPath>
</defs>
</svg>
