<svg width="44" height="45" viewBox="0 0 44 45" fill="none" xmlns="http://www.w3.org/2000/svg">
<g clip-path="url(#clip0_229_369)">
<path d="M32.9992 35.7002C30.5792 35.7002 28.5992 37.6802 28.5992 40.1002C28.5992 42.5202 30.5792 44.5002 32.9992 44.5002C35.4192 44.5002 37.3992 42.5202 37.3992 40.1002C37.3992 37.6802 35.4192 35.7002 32.9992 35.7002ZM17.5992 35.7002C15.1792 35.7002 13.1992 37.6802 13.1992 40.1002C13.1992 42.5202 15.1792 44.5002 17.5992 44.5002C20.0192 44.5002 21.9992 42.5202 21.9992 40.1002C21.9992 37.6802 20.0192 35.7002 17.5992 35.7002Z" fill="#62D0B6"/>
<path d="M44 9.3L39.6 31.3H13.2L8.8 4.9H0V0.5H12.54L13.2 4.24L16.94 26.9H36.08L36.96 22.5H22V18.1H37.84L38.72 13.7H22V9.3H44Z" fill="#62D0B6"/>
</g>
<defs>
<clipPath id="clip0_229_369">
<rect width="44" height="44" fill="white" transform="translate(0 0.5)"/>
</clipPath>
</defs>
</svg>
